# This file uses centimeters as units for non-parametric coordinates.

mtllib Peana1.mtl
g default
v 7.402235 0.120865 -3.066100
v 5.665425 0.120865 -5.665419
v 3.066110 0.120865 -7.402231
v 0.000004 0.120865 -8.012117
v -3.066101 0.120865 -7.402235
v -5.665420 0.120865 -5.665425
v -7.402232 0.120865 -3.066109
v -8.012117 0.120865 -0.000003
v -7.402234 0.120865 3.066102
v -5.665424 0.120865 5.665421
v -3.066107 0.120865 7.402233
v -0.000001 0.120865 8.012117
v 3.066104 0.120865 7.402234
v 5.665422 0.120865 5.665423
v 7.402233 0.120865 3.066106
v 8.012117 0.120865 0.000000
v 7.402235 0.628553 -3.066100
v 5.665425 0.628553 -5.665419
v 3.066110 0.628553 -7.402231
v 0.000004 0.628553 -8.012117
v -3.066101 0.628553 -7.402235
v -5.665420 0.628553 -5.665425
v -7.402232 0.628553 -3.066109
v -8.012117 0.628553 -0.000003
v -7.402234 0.628553 3.066102
v -5.665424 0.628553 5.665421
v -3.066107 0.628553 7.402233
v -0.000001 0.628553 8.012117
v 3.066104 0.628553 7.402234
v 5.665422 0.628553 5.665423
v 7.402233 0.628553 3.066106
v 8.012117 0.628553 0.000000
v 0.000000 0.120865 0.000000
v 6.623979 0.981137 -2.812063
v 5.069831 0.981137 -5.138011
v 2.743886 0.981137 -6.692164
v 0.000242 0.981137 -7.237907
v -2.743400 0.981137 -6.692167
v -5.069349 0.981137 -5.138016
v -6.623501 0.981137 -2.812069
v -7.169246 0.981137 -0.068427
v -6.623503 0.981137 2.675215
v -5.069352 0.981137 5.001164
v -2.743405 0.981137 6.555314
v 0.000238 0.981137 7.101058
v 2.743881 0.981137 6.555315
v 5.069828 0.981137 5.001166
v 6.623978 0.981137 2.675218
v 7.169721 0.981137 -0.068425
v 6.623979 0.613993 -2.812063
v 5.069831 0.613993 -5.138011
v 2.743886 0.613993 -6.692164
v 0.000242 0.613993 -7.237907
v -2.743400 0.613993 -6.692167
v -5.069349 0.613993 -5.138016
v -6.623501 0.613993 -2.812069
v -7.169246 0.613993 -0.068427
v -6.623503 0.613993 2.675215
v -5.069352 0.613993 5.001164
v -2.743405 0.613993 6.555314
v 0.000238 0.613993 7.101058
v 2.743881 0.613993 6.555315
v 5.069828 0.613993 5.001166
v 6.623978 0.613993 2.675218
v 7.169721 0.613993 -0.068425
v 6.399002 0.613993 -2.718874
v 4.897642 0.613993 -4.965820
v 2.650696 0.613993 -6.467185
v 0.000242 0.613993 -6.994392
v -2.650211 0.613993 -6.467188
v -4.897158 0.613993 -4.965826
v -6.398522 0.613993 -2.718880
v -6.925730 0.613993 -0.068427
v -6.398523 0.613993 2.582027
v -4.897162 0.613993 4.828973
v -2.650216 0.613993 6.330337
v 0.000238 0.613993 6.857543
v 2.650692 0.613993 6.330337
v 4.897638 0.613993 4.828975
v 6.399000 0.613993 2.582030
v 6.926207 0.613993 -0.068425
v 6.399002 0.962408 -2.718874
v 4.897642 0.962408 -4.965820
v 2.650696 0.962408 -6.467185
v 0.000242 0.962408 -6.994392
v -2.650211 0.962408 -6.467188
v -4.897158 0.962408 -4.965826
v -6.398522 0.962408 -2.718880
v -6.925730 0.962408 -0.068427
v -6.398523 0.962408 2.582027
v -4.897162 0.962408 4.828973
v -2.650216 0.962408 6.330337
v 0.000238 0.962408 6.857543
v 2.650692 0.962408 6.330337
v 4.897638 0.962408 4.828975
v 6.399000 0.962408 2.582030
v 6.926207 0.962408 -0.068425
v 0.000239 0.962408 -0.068424
vt 0.644356 0.096456
vt 0.610485 0.045765
vt 0.559794 0.011894
vt 0.500000 0.000000
vt 0.440206 0.011894
vt 0.389515 0.045765
vt 0.355644 0.096456
vt 0.343750 0.156250
vt 0.355644 0.216044
vt 0.389515 0.266735
vt 0.440206 0.300606
vt 0.500000 0.312500
vt 0.559794 0.300606
vt 0.610485 0.266735
vt 0.644356 0.216044
vt 0.656250 0.156250
vt 0.375000 0.312500
vt 0.390625 0.312500
vt 0.406250 0.312500
vt 0.421875 0.312500
vt 0.437500 0.312500
vt 0.453125 0.312500
vt 0.468750 0.312500
vt 0.484375 0.312500
vt 0.500000 0.312500
vt 0.515625 0.312500
vt 0.531250 0.312500
vt 0.546875 0.312500
vt 0.562500 0.312500
vt 0.578125 0.312500
vt 0.593750 0.312500
vt 0.609375 0.312500
vt 0.625000 0.312500
vt 0.375000 0.687500
vt 0.390625 0.687500
vt 0.406250 0.687500
vt 0.421875 0.687500
vt 0.437500 0.687500
vt 0.453125 0.687500
vt 0.468750 0.687500
vt 0.484375 0.687500
vt 0.500000 0.687500
vt 0.515625 0.687500
vt 0.531250 0.687500
vt 0.546875 0.687500
vt 0.562500 0.687500
vt 0.578125 0.687500
vt 0.593750 0.687500
vt 0.609375 0.687500
vt 0.625000 0.687500
vt 0.500000 0.156250
vt 0.375000 0.687500
vt 0.390625 0.687500
vt 0.390625 0.687500
vt 0.406250 0.687500
vt 0.406250 0.687500
vt 0.421875 0.687500
vt 0.421875 0.687500
vt 0.437500 0.687500
vt 0.437500 0.687500
vt 0.453125 0.687500
vt 0.453125 0.687500
vt 0.468750 0.687500
vt 0.468750 0.687500
vt 0.484375 0.687500
vt 0.484375 0.687500
vt 0.500000 0.687500
vt 0.500000 0.687500
vt 0.515625 0.687500
vt 0.515625 0.687500
vt 0.531250 0.687500
vt 0.531250 0.687500
vt 0.546875 0.687500
vt 0.546875 0.687500
vt 0.562500 0.687500
vt 0.562500 0.687500
vt 0.578125 0.687500
vt 0.578125 0.687500
vt 0.593750 0.687500
vt 0.593750 0.687500
vt 0.609375 0.687500
vt 0.609375 0.687500
vt 0.625000 0.687500
vt 0.375000 0.687500
vt 0.375000 0.687500
vt 0.390625 0.687500
vt 0.390625 0.687500
vt 0.406250 0.687500
vt 0.406250 0.687500
vt 0.421875 0.687500
vt 0.421875 0.687500
vt 0.437500 0.687500
vt 0.437500 0.687500
vt 0.453125 0.687500
vt 0.453125 0.687500
vt 0.468750 0.687500
vt 0.468750 0.687500
vt 0.484375 0.687500
vt 0.484375 0.687500
vt 0.500000 0.687500
vt 0.500000 0.687500
vt 0.515625 0.687500
vt 0.515625 0.687500
vt 0.531250 0.687500
vt 0.531250 0.687500
vt 0.546875 0.687500
vt 0.546875 0.687500
vt 0.562500 0.687500
vt 0.562500 0.687500
vt 0.578125 0.687500
vt 0.578125 0.687500
vt 0.593750 0.687500
vt 0.593750 0.687500
vt 0.609375 0.687500
vt 0.609375 0.687500
vt 0.375000 0.687500
vt 0.375000 0.687500
vt 0.390625 0.687500
vt 0.390625 0.687500
vt 0.406250 0.687500
vt 0.406250 0.687500
vt 0.421875 0.687500
vt 0.421875 0.687500
vt 0.437500 0.687500
vt 0.437500 0.687500
vt 0.453125 0.687500
vt 0.453125 0.687500
vt 0.468750 0.687500
vt 0.468750 0.687500
vt 0.484375 0.687500
vt 0.484375 0.687500
vt 0.500000 0.687500
vt 0.500000 0.687500
vt 0.515625 0.687500
vt 0.515625 0.687500
vt 0.531250 0.687500
vt 0.531250 0.687500
vt 0.546875 0.687500
vt 0.546875 0.687500
vt 0.562500 0.687500
vt 0.562500 0.687500
vt 0.578125 0.687500
vt 0.578125 0.687500
vt 0.593750 0.687500
vt 0.593750 0.687500
vt 0.609375 0.687500
vt 0.609375 0.687500
vt 0.375000 0.687500
vt 0.375000 0.687500
vt 0.390625 0.687500
vt 0.390625 0.687500
vt 0.406250 0.687500
vt 0.406250 0.687500
vt 0.421875 0.687500
vt 0.421875 0.687500
vt 0.437500 0.687500
vt 0.437500 0.687500
vt 0.453125 0.687500
vt 0.453125 0.687500
vt 0.468750 0.687500
vt 0.468750 0.687500
vt 0.484375 0.687500
vt 0.484375 0.687500
vt 0.500000 0.687500
vt 0.500000 0.687500
vt 0.515625 0.687500
vt 0.515625 0.687500
vt 0.531250 0.687500
vt 0.531250 0.687500
vt 0.546875 0.687500
vt 0.546875 0.687500
vt 0.562500 0.687500
vt 0.562500 0.687500
vt 0.578125 0.687500
vt 0.578125 0.687500
vt 0.593750 0.687500
vt 0.593750 0.687500
vt 0.609375 0.687500
vt 0.609375 0.687500
vt 0.375000 0.687500
vt 0.390625 0.687500
vt 0.406250 0.687500
vt 0.421875 0.687500
vt 0.437500 0.687500
vt 0.453125 0.687500
vt 0.468750 0.687500
vt 0.484375 0.687500
vt 0.500000 0.687500
vt 0.515625 0.687500
vt 0.531250 0.687500
vt 0.546875 0.687500
vt 0.562500 0.687500
vt 0.578125 0.687500
vt 0.593750 0.687500
vt 0.609375 0.687500
vn 0.923880 0.000000 -0.382683
vn 0.707107 0.000000 -0.707106
vn 0.707107 0.000000 -0.707106
vn 0.923880 0.000000 -0.382683
vn 0.382684 0.000000 -0.923879
vn 0.382684 0.000000 -0.923879
vn 0.000001 0.000000 -1.000000
vn 0.000001 0.000000 -1.000000
vn -0.382683 0.000000 -0.923880
vn -0.382683 0.000000 -0.923880
vn -0.707106 0.000000 -0.707107
vn -0.707106 0.000000 -0.707107
vn -0.923879 0.000000 -0.382684
vn -0.923879 0.000000 -0.382684
vn -1.000000 0.000000 -0.000000
vn -1.000000 0.000000 -0.000000
vn -0.923880 0.000000 0.382683
vn -0.923880 0.000000 0.382683
vn -0.707107 0.000000 0.707107
vn -0.707107 0.000000 0.707107
vn -0.382684 0.000000 0.923879
vn -0.382684 0.000000 0.923879
vn -0.000000 0.000000 1.000000
vn -0.000000 0.000000 1.000000
vn 0.382683 0.000000 0.923880
vn 0.382683 0.000000 0.923880
vn 0.707107 0.000000 0.707107
vn 0.707107 0.000000 0.707107
vn 0.923880 0.000000 0.382684
vn 0.923880 0.000000 0.382684
vn 1.000000 0.000000 0.000000
vn 1.000000 0.000000 0.000000
vn 0.000000 -1.000000 -0.000000
vn 0.000000 -1.000000 0.000000
vn 0.000000 -1.000000 0.000000
vn 0.000000 -1.000000 -0.000000
vn 0.000000 -1.000000 0.000000
vn 0.000000 -1.000000 0.000000
vn 0.000000 -1.000000 0.000000
vn 0.000000 -1.000000 0.000000
vn 0.000000 -1.000000 -0.000000
vn 0.000000 -1.000000 -0.000000
vn 0.000000 -1.000000 0.000000
vn 0.000000 -1.000000 0.000000
vn 0.000000 -1.000000 -0.000000
vn 0.000000 -1.000000 0.000000
vn 0.000000 -1.000000 -0.000000
vn 0.000000 -1.000000 -0.000000
vn 0.000000 -1.000000 0.000000
vn 0.367654 0.918118 -0.147952
vn 0.289101 0.914025 -0.284569
vn 0.285239 0.913897 -0.288844
vn 0.365337 0.917918 -0.154775
vn 0.159368 0.911115 -0.380094
vn 0.156447 0.911075 -0.381400
vn -0.000016 0.910069 -0.414457
vn 0.000013 0.910069 -0.414457
vn -0.159364 0.911152 -0.380007
vn -0.156395 0.911111 -0.381336
vn -0.289011 0.914089 -0.284452
vn -0.285127 0.913960 -0.288756
vn -0.367489 0.918196 -0.147876
vn -0.365169 0.917996 -0.154712
vn -0.385622 0.922648 0.004113
vn -0.386133 0.922437 -0.003268
vn -0.345746 0.926724 0.147116
vn -0.348594 0.926562 0.141296
vn -0.258181 0.929915 0.261916
vn -0.261685 0.929829 0.258725
vn -0.137504 0.931922 0.335580
vn -0.139818 0.931898 0.334688
vn -0.000013 0.932597 0.360920
vn 0.000010 0.932597 0.360920
vn 0.137505 0.931898 0.335647
vn 0.139861 0.931873 0.334740
vn 0.258250 0.929868 0.262014
vn 0.261783 0.929781 0.258800
vn 0.345890 0.926658 0.147190
vn 0.348750 0.926495 0.141349
vn 0.385807 0.922570 0.004117
vn 0.386319 0.922360 -0.003271
vn -0.923880 0.000000 0.382683
vn -0.707107 0.000000 0.707106
vn -0.707107 0.000000 0.707106
vn -0.923880 0.000000 0.382683
vn -0.382684 0.000000 0.923879
vn -0.382684 0.000000 0.923879
vn -0.000001 0.000000 1.000000
vn -0.000001 0.000000 1.000000
vn 0.382683 0.000000 0.923880
vn 0.382683 0.000000 0.923880
vn 0.707106 0.000000 0.707107
vn 0.707106 0.000000 0.707107
vn 0.923879 0.000000 0.382684
vn 0.923879 0.000000 0.382684
vn 1.000000 0.000000 0.000000
vn 1.000000 0.000000 0.000000
vn 0.923880 0.000000 -0.382683
vn 0.923880 0.000000 -0.382683
vn 0.707107 0.000000 -0.707107
vn 0.707107 0.000000 -0.707107
vn 0.382684 0.000000 -0.923879
vn 0.382684 0.000000 -0.923879
vn 0.000000 0.000000 -1.000000
vn 0.000000 0.000000 -1.000000
vn -0.382683 0.000000 -0.923880
vn -0.382683 0.000000 -0.923880
vn -0.707107 0.000000 -0.707107
vn -0.707107 0.000000 -0.707107
vn -0.923880 0.000000 -0.382683
vn -0.923880 0.000000 -0.382683
vn -1.000000 0.000000 -0.000000
vn -1.000000 0.000000 -0.000000
vn 0.000000 1.000000 -0.000000
vn 0.000000 1.000000 0.000000
vn 0.000000 1.000000 0.000000
vn 0.000000 1.000000 -0.000000
vn 0.000000 1.000000 0.000000
vn 0.000000 1.000000 0.000000
vn 0.000000 1.000000 0.000000
vn 0.000000 1.000000 0.000000
vn 0.000000 1.000000 -0.000000
vn 0.000000 1.000000 -0.000000
vn 0.000000 1.000000 0.000000
vn 0.000000 1.000000 0.000000
vn 0.000000 1.000000 0.000000
vn 0.000000 1.000000 0.000000
vn 0.000000 1.000000 -0.000000
vn 0.000000 1.000000 -0.000000
vn 0.000000 1.000000 -0.000000
vn 0.000000 1.000000 -0.000000
vn 0.000000 1.000000 -0.000000
vn 0.000000 1.000000 -0.000000
vn 0.000000 1.000000 0.000000
vn 0.000000 1.000000 0.000000
vn 0.000000 1.000000 0.000000
vn 0.000000 1.000000 0.000000
vn 0.000000 1.000000 0.000000
vn 0.000000 1.000000 0.000000
vn 0.000000 1.000000 0.000000
vn 0.000000 1.000000 0.000000
vn 0.000000 1.000000 -0.000000
vn 0.000000 1.000000 -0.000000
vn 0.000000 1.000000 -0.000000
vn 0.000000 1.000000 -0.000000
vn 0.923880 0.000000 -0.382683
vn 0.707107 0.000000 -0.707106
vn 0.707107 0.000000 -0.707106
vn 0.923880 0.000000 -0.382683
vn 0.382684 0.000000 -0.923879
vn 0.382684 0.000000 -0.923879
vn 0.000001 0.000000 -1.000000
vn 0.000001 0.000000 -1.000000
vn -0.382683 0.000000 -0.923880
vn -0.382683 0.000000 -0.923880
vn -0.707107 0.000000 -0.707107
vn -0.707107 0.000000 -0.707107
vn -0.923879 0.000000 -0.382684
vn -0.923879 0.000000 -0.382684
vn -1.000000 0.000000 -0.000000
vn -1.000000 0.000000 -0.000000
vn -0.923880 0.000000 0.382683
vn -0.923880 0.000000 0.382683
vn -0.707107 0.000000 0.707106
vn -0.707107 0.000000 0.707106
vn -0.382684 0.000000 0.923879
vn -0.382684 0.000000 0.923879
vn 0.000000 0.000000 1.000000
vn 0.000000 0.000000 1.000000
vn 0.382683 0.000000 0.923880
vn 0.382683 0.000000 0.923880
vn 0.707107 0.000000 0.707107
vn 0.707107 0.000000 0.707107
vn 0.923880 0.000000 0.382683
vn 0.923880 0.000000 0.382683
vn 1.000000 0.000000 0.000000
vn 1.000000 0.000000 0.000000
vn -0.000000 1.000000 0.000000
vn -0.000000 1.000000 0.000000
vn 0.000000 1.000000 -0.000000
vn -0.000000 1.000000 0.000000
vn -0.000000 1.000000 0.000000
vn 0.000000 1.000000 0.000000
vn 0.000000 1.000000 0.000000
vn 0.000000 1.000000 0.000000
vn 0.000000 1.000000 0.000000
vn 0.000000 1.000000 0.000000
vn 0.000000 1.000000 -0.000000
vn 0.000000 1.000000 -0.000000
vn 0.000000 1.000000 -0.000000
vn -0.000000 1.000000 -0.000000
vn -0.000000 1.000000 -0.000000
vn -0.000000 1.000000 -0.000000
vn -0.000000 1.000000 -0.000000
s 1
g peana4
usemtl initialShadingGroup
f 1/17/1 2/18/2 18/35/3 17/34/4
f 2/18/2 3/19/5 19/36/6 18/35/3
f 3/19/5 4/20/7 20/37/8 19/36/6
f 4/20/7 5/21/9 21/38/10 20/37/8
f 5/21/9 6/22/11 22/39/12 21/38/10
f 6/22/11 7/23/13 23/40/14 22/39/12
f 7/23/13 8/24/15 24/41/16 23/40/14
f 8/24/15 9/25/17 25/42/18 24/41/16
f 9/25/17 10/26/19 26/43/20 25/42/18
f 10/26/19 11/27/21 27/44/22 26/43/20
f 11/27/21 12/28/23 28/45/24 27/44/22
f 12/28/23 13/29/25 29/46/26 28/45/24
f 13/29/25 14/30/27 30/47/28 29/46/26
f 14/30/27 15/31/29 31/48/30 30/47/28
f 15/31/29 16/32/31 32/49/32 31/48/30
f 16/32/31 1/33/1 17/50/4 32/49/32
s 2
f 2/2/33 1/1/34 33/51/35
f 3/3/36 2/2/33 33/51/35
f 4/4/37 3/3/36 33/51/35
f 5/5/38 4/4/37 33/51/35
f 6/6/39 5/5/38 33/51/35
f 7/7/40 6/6/39 33/51/35
f 8/8/41 7/7/40 33/51/35
f 9/9/42 8/8/41 33/51/35
f 10/10/43 9/9/42 33/51/35
f 11/11/44 10/10/43 33/51/35
f 12/12/45 11/11/44 33/51/35
f 13/13/46 12/12/45 33/51/35
f 14/14/47 13/13/46 33/51/35
f 15/15/48 14/14/47 33/51/35
f 16/16/49 15/15/48 33/51/35
f 1/1/34 16/16/49 33/51/35
s 3
f 17/35/50 18/53/51 35/34/52 34/52/53
f 18/36/51 19/55/54 36/35/55 35/54/52
f 19/37/54 20/57/56 37/36/57 36/56/55
f 20/38/56 21/59/58 38/37/59 37/58/57
f 21/39/58 22/61/60 39/38/61 38/60/59
f 22/40/60 23/63/62 40/39/63 39/62/61
f 23/41/62 24/65/64 41/40/65 40/64/63
f 24/42/64 25/67/66 42/41/67 41/66/65
f 25/43/66 26/69/68 43/42/69 42/68/67
f 26/44/68 27/71/70 44/43/71 43/70/69
f 27/45/70 28/73/72 45/44/73 44/72/71
f 28/46/72 29/75/74 46/45/75 45/74/73
f 29/47/74 30/77/76 47/46/77 46/76/75
f 30/48/76 31/79/78 48/47/79 47/78/77
f 31/49/78 32/81/80 49/48/81 48/80/79
f 32/50/80 17/83/50 34/49/53 49/82/81
s 4
f 34/52/82 35/34/83 51/84/84 50/85/85
f 35/54/83 36/35/86 52/86/87 51/87/84
f 36/56/86 37/36/88 53/88/89 52/89/87
f 37/58/88 38/37/90 54/90/91 53/91/89
f 38/60/90 39/38/92 55/92/93 54/93/91
f 39/62/92 40/39/94 56/94/95 55/95/93
f 40/64/94 41/40/96 57/96/97 56/97/95
f 41/66/96 42/41/98 58/98/99 57/99/97
f 42/68/98 43/42/100 59/100/101 58/101/99
f 43/70/100 44/43/102 60/102/103 59/103/101
f 44/72/102 45/44/104 61/104/105 60/105/103
f 45/74/104 46/45/106 62/106/107 61/107/105
f 46/76/106 47/46/108 63/108/109 62/109/107
f 47/78/108 48/47/110 64/110/111 63/111/109
f 48/80/110 49/48/112 65/112/113 64/113/111
f 49/82/112 34/49/82 50/114/85 65/115/113
s 5
f 50/85/114 51/84/115 67/116/116 66/117/117
f 51/87/115 52/86/118 68/118/119 67/119/116
f 52/89/118 53/88/120 69/120/121 68/121/119
f 53/91/120 54/90/122 70/122/123 69/123/121
f 54/93/122 55/92/124 71/124/125 70/125/123
f 55/95/124 56/94/126 72/126/127 71/127/125
f 56/97/126 57/96/128 73/128/129 72/129/127
f 57/99/128 58/98/130 74/130/131 73/131/129
f 58/101/130 59/100/132 75/132/133 74/133/131
f 59/103/132 60/102/134 76/134/135 75/135/133
f 60/105/134 61/104/136 77/136/137 76/137/135
f 61/107/136 62/106/138 78/138/139 77/139/137
f 62/109/138 63/108/140 79/140/141 78/141/139
f 63/111/140 64/110/142 80/142/143 79/143/141
f 64/113/142 65/112/144 81/144/145 80/145/143
f 65/115/144 50/114/114 66/146/117 81/147/145
s 6
f 66/117/146 67/116/147 83/148/148 82/149/149
f 67/119/147 68/118/150 84/150/151 83/151/148
f 68/121/150 69/120/152 85/152/153 84/153/151
f 69/123/152 70/122/154 86/154/155 85/155/153
f 70/125/154 71/124/156 87/156/157 86/157/155
f 71/127/156 72/126/158 88/158/159 87/159/157
f 72/129/158 73/128/160 89/160/161 88/161/159
f 73/131/160 74/130/162 90/162/163 89/163/161
f 74/133/162 75/132/164 91/164/165 90/165/163
f 75/135/164 76/134/166 92/166/167 91/167/165
f 76/137/166 77/136/168 93/168/169 92/169/167
f 77/139/168 78/138/170 94/170/171 93/171/169
f 78/141/170 79/140/172 95/172/173 94/173/171
f 79/143/172 80/142/174 96/174/175 95/175/173
f 80/145/174 81/144/176 97/176/177 96/177/175
f 81/147/176 66/146/146 82/178/149 97/179/177
s 7
f 82/149/178 83/148/179 98/180/180
f 83/151/179 84/150/181 98/181/180
f 84/153/181 85/152/182 98/182/180
f 85/155/182 86/154/183 98/183/180
f 86/157/183 87/156/184 98/184/180
f 87/159/184 88/158/185 98/185/180
f 88/161/185 89/160/186 98/186/180
f 89/163/186 90/162/187 98/187/180
f 90/165/187 91/164/188 98/188/180
f 91/167/188 92/166/189 98/189/180
f 92/169/189 93/168/190 98/190/180
f 93/171/190 94/170/191 98/191/180
f 94/173/191 95/172/192 98/192/180
f 95/175/192 96/174/193 98/193/180
f 96/177/193 97/176/194 98/194/180
f 97/179/194 82/178/178 98/195/180
